<?xml version="1.0" encoding="UTF-8" standalone="no"?>
<!DOCTYPE svg PUBLIC "-//W3C//DTD SVG 1.1//EN" "http://www.w3.org/Graphics/SVG/1.1/DTD/svg11.dtd">
<svg version="1.1" xmlns="http://www.w3.org/2000/svg" xmlns:xlink="http://www.w3.org/1999/xlink" preserveAspectRatio="xMidYMid meet" viewBox="0 0 1024 1024" width="1024" height="1024"><defs><path d="" id="dLNZ4nbaN"></path><path d="M0 384L128 384L128 512L0 512L0 384Z" id="m5u5Qd61j"></path><path d="M0 224L480 224L480 352L0 352L0 224Z" id="a1LZcIbqG"></path><path d="M352 512L480 512L480 640L352 640L352 512Z" id="b31nS1AwBQ"></path><path d="M0 672L480 672L480 800L0 800L0 672Z" id="idPtl6Ktw"></path><path d="" id="bg168xJdO"></path><path d="" id="aeHTOjjyA"></path><path d="M544 384L672 384L672 512L544 512L544 384Z" id="aNVblTigd"></path><path d="M544 224L1024 224L1024 352L544 352L544 224Z" id="bP8SXtMUb"></path><path d="M896 512L1024 512L1024 640L896 640L896 512Z" id="d16wvUJnc"></path><path d="M544 672L1024 672L1024 800L544 800L544 672Z" id="b1ehAUE5zY"></path></defs><g><g><g><g><use xlink:href="#dLNZ4nbaN" opacity="1" fill-opacity="0" stroke="#000000" stroke-width="1" stroke-opacity="1"></use></g></g><g><use xlink:href="#m5u5Qd61j" opacity="1" fill="#6c6c6c" fill-opacity="1"></use></g><g><use xlink:href="#a1LZcIbqG" opacity="1" fill="#6c6c6c" fill-opacity="1"></use></g><g><use xlink:href="#b31nS1AwBQ" opacity="1" fill="#6c6c6c" fill-opacity="1"></use></g><g><use xlink:href="#idPtl6Ktw" opacity="1" fill="#6c6c6c" fill-opacity="1"></use></g><g><g><use xlink:href="#bg168xJdO" opacity="1" fill-opacity="0" stroke="#000000" stroke-width="1" stroke-opacity="1"></use></g></g><g><g><use xlink:href="#aeHTOjjyA" opacity="1" fill-opacity="0" stroke="#000000" stroke-width="1" stroke-opacity="1"></use></g></g><g><use xlink:href="#aNVblTigd" opacity="1" fill="#ff4d7b" fill-opacity="1"></use></g><g><use xlink:href="#bP8SXtMUb" opacity="1" fill="#ff4d7b" fill-opacity="1"></use></g><g><use xlink:href="#d16wvUJnc" opacity="1" fill="#ff4d7b" fill-opacity="1"></use></g><g><use xlink:href="#b1ehAUE5zY" opacity="1" fill="#ff4d7b" fill-opacity="1"></use></g></g></g></svg>