<?xml version="1.0" encoding="UTF-8" standalone="no"?>
<!DOCTYPE svg PUBLIC "-//W3C//DTD SVG 1.1//EN" "http://www.w3.org/Graphics/SVG/1.1/DTD/svg11.dtd">
<svg version="1.1" xmlns="http://www.w3.org/2000/svg" xmlns:xlink="http://www.w3.org/1999/xlink" preserveAspectRatio="xMidYMid meet" viewBox="0 0 1024 1024" width="1024" height="1024"><defs><path d="" id="dLNZ4nbaN"></path><path d="M96 384L224 384L224 512L96 512L96 384Z" id="c1gDEOiyJW"></path><path d="M96 224L480 224L480 352L96 352L96 224Z" id="eEeqMmk0u"></path><path d="M352 512L480 512L480 640L352 640L352 512Z" id="d11kg2lwWV"></path><path d="M96 672L480 672L480 800L96 800L96 672Z" id="brbuMxkqU"></path><path d="" id="bg168xJdO"></path><path d="" id="aeHTOjjyA"></path><path d="M544 384L672 384L672 512L544 512L544 384Z" id="b8kMg43r"></path><path d="M544 224L928 224L928 352L544 352L544 224Z" id="j6PAaQqkP"></path><path d="M800 512L928 512L928 640L800 640L800 512Z" id="auZ3gnF7o"></path><path d="M544 672L928 672L928 800L544 800L544 672Z" id="bMthweNuP"></path></defs><g><g><g><g><use xlink:href="#dLNZ4nbaN" opacity="1" fill-opacity="0" stroke="#000000" stroke-width="1" stroke-opacity="1"></use></g></g><g><use xlink:href="#c1gDEOiyJW" opacity="1" fill="#6c6c6c" fill-opacity="1"></use></g><g><use xlink:href="#eEeqMmk0u" opacity="1" fill="#6c6c6c" fill-opacity="1"></use></g><g><use xlink:href="#d11kg2lwWV" opacity="1" fill="#6c6c6c" fill-opacity="1"></use></g><g><use xlink:href="#brbuMxkqU" opacity="1" fill="#6c6c6c" fill-opacity="1"></use></g><g><g><use xlink:href="#bg168xJdO" opacity="1" fill-opacity="0" stroke="#000000" stroke-width="1" stroke-opacity="1"></use></g></g><g><g><use xlink:href="#aeHTOjjyA" opacity="1" fill-opacity="0" stroke="#000000" stroke-width="1" stroke-opacity="1"></use></g></g><g><use xlink:href="#b8kMg43r" opacity="1" fill="#ff4d7b" fill-opacity="1"></use></g><g><use xlink:href="#j6PAaQqkP" opacity="1" fill="#ff4d7b" fill-opacity="1"></use></g><g><use xlink:href="#auZ3gnF7o" opacity="1" fill="#ff4d7b" fill-opacity="1"></use></g><g><use xlink:href="#bMthweNuP" opacity="1" fill="#ff4d7b" fill-opacity="1"></use></g></g></g></svg>